<?xml version="1.0" standalone="no"?>
<!DOCTYPE svg PUBLIC "-//W3C//DTD SVG 20010904//EN"
 "http://www.w3.org/TR/2001/REC-SVG-20010904/DTD/svg10.dtd">
<svg version="1.0" xmlns="http://www.w3.org/2000/svg"
 width="900.000000pt" height="900.000000pt" viewBox="0 0 900.000000 900.000000"
 preserveAspectRatio="xMidYMid meet">
<metadata>
Created by potrace 1.10, written by Peter Selinger 2001-2011
</metadata>
<g transform="translate(0.000000,900.000000) scale(0.100000,-0.100000)"
fill="#9f0102" stroke="none">
<path d="M3743 8450 c-86 -42 -110 -73 -181 -231 -38 -85 -156 -284 -193 -327
-16 -18 -29 -36 -29 -40 0 -4 -10 -18 -22 -32 -13 -14 -40 -46 -60 -72 -36
-43 -50 -58 -123 -124 -45 -41 -134 -96 -174 -107 -57 -15 -150 -20 -179 -9
-44 17 -92 24 -92 14 0 -5 16 -22 35 -36 48 -37 161 -57 232 -41 109 25 269
157 412 341 56 72 99 132 128 182 71 119 107 186 136 256 42 103 112 180 175
191 82 14 160 -11 206 -65 47 -56 33 -162 -31 -246 l-27 -36 -73 6 c-63 6 -74
4 -80 -10 -4 -11 4 -24 26 -41 39 -30 42 -73 8 -100 -13 -10 -60 -31 -105 -48
-73 -27 -82 -33 -82 -56 0 -14 5 -30 11 -36 6 -6 17 -36 24 -67 18 -76 6 -116
-48 -159 -43 -35 -222 -127 -245 -127 -7 0 -23 -5 -35 -12 -36 -20 -120 -47
-147 -48 -31 0 -86 -33 -120 -71 -24 -29 -27 -29 -78 -19 -71 13 -115 2 -193
-50 -90 -60 -262 -149 -318 -165 -25 -7 -79 -22 -118 -34 -63 -18 -99 -21
-261 -21 -139 0 -202 4 -239 15 -123 36 -159 36 -135 -3 11 -16 222 -119 270
-131 20 -6 80 -21 132 -35 52 -15 139 -29 192 -33 133 -8 156 -37 66 -81 -23
-12 -63 -33 -88 -47 -25 -14 -52 -25 -62 -25 -9 0 -19 -4 -22 -8 -3 -5 -33
-17 -68 -26 -35 -10 -69 -20 -76 -22 -39 -11 66 -91 163 -124 61 -21 67 -42
31 -119 -30 -66 -57 -87 -86 -69 -26 16 -25 22 6 75 14 25 24 46 22 47 -12 10
-73 36 -84 36 -7 0 -42 28 -78 63 -47 47 -66 73 -71 100 -9 48 -2 57 48 57 74
0 260 62 241 80 -5 4 -27 10 -49 13 -22 2 -66 10 -97 18 l-58 13 -45 -32 c-25
-18 -48 -32 -52 -32 -4 0 -14 -6 -22 -14 -17 -15 -177 -97 -226 -117 -42 -16
-154 -39 -191 -39 -16 0 -39 -6 -50 -14 -18 -14 -17 -16 21 -32 27 -13 73 -19
143 -22 97 -4 102 -5 102 -25 0 -43 -285 -307 -330 -307 -9 0 -20 -4 -25 -9
-6 -5 -35 -19 -65 -30 -43 -17 -78 -21 -165 -21 -118 0 -159 10 -248 62 -53
31 -67 34 -67 15 0 -15 22 -48 67 -102 162 -191 248 -273 333 -319 19 -10 55
-32 79 -48 32 -21 51 -27 71 -23 33 7 80 -9 80 -28 0 -25 -51 -111 -78 -134
-25 -20 -102 -39 -187 -46 -42 -3 -46 -33 -6 -42 17 -4 33 -11 36 -16 4 -5 25
-9 48 -9 23 0 48 -4 56 -9 22 -14 22 -116 1 -171 -10 -25 -23 -67 -30 -95 -50
-200 -70 -297 -76 -383 -8 -93 -18 -106 -64 -78 -34 20 -69 21 -95 2 -11 -7
-33 -16 -48 -20 -29 -7 -117 -91 -117 -111 0 -6 -6 -19 -13 -29 -19 -26 -52
-7 -72 41 -18 42 -10 79 31 139 26 38 26 64 0 64 -8 0 -39 -22 -69 -50 -41
-37 -60 -64 -77 -109 -22 -59 -22 -61 -5 -116 10 -31 22 -58 26 -61 5 -3 9
-16 9 -29 0 -16 -14 -33 -50 -59 -57 -41 -107 -47 -133 -18 -21 23 -22 82 -2
108 15 20 20 74 7 74 -16 0 -51 -46 -81 -105 -35 -69 -43 -165 -16 -201 19
-24 19 -67 1 -124 -47 -147 -59 -290 -28 -349 16 -33 20 -35 69 -35 67 -1 79
-13 63 -61 -19 -56 -8 -190 18 -241 29 -54 77 -99 134 -124 42 -18 78 -19 78
-1 0 4 -14 20 -31 37 -50 47 -79 114 -79 183 0 59 23 139 44 153 23 16 85 7
127 -17 51 -29 87 -31 146 -9 23 9 53 14 66 10 35 -8 60 -53 61 -105 2 -106
71 -17 71 91 0 70 -22 103 -88 137 -47 23 -60 48 -35 69 18 13 101 24 132 16
30 -7 32 -14 51 -131 13 -78 22 -129 55 -288 4 -22 13 -56 20 -75 31 -85 40
-117 40 -133 0 -10 11 -40 25 -67 14 -27 36 -83 49 -124 14 -40 29 -82 34 -92
6 -11 27 -58 47 -106 20 -48 47 -94 59 -101 12 -8 34 -41 50 -73 29 -62 96
-178 131 -229 11 -16 25 -37 30 -47 26 -42 107 -159 147 -211 64 -81 450 -478
528 -542 175 -144 171 -142 275 -199 39 -22 93 -54 122 -73 28 -18 57 -33 65
-33 7 0 29 -13 48 -29 20 -16 80 -50 135 -76 55 -27 118 -60 140 -75 38 -25
72 -40 165 -75 22 -8 58 -22 80 -32 22 -9 59 -17 83 -18 36 -2 81 -14 244 -66
87 -27 157 -40 271 -50 69 -5 129 -12 135 -16 5 -3 39 -9 76 -14 36 -4 98 -12
136 -18 39 -5 141 -12 228 -14 143 -5 160 -3 175 13 44 47 132 59 264 35 41
-8 183 15 288 45 36 11 94 26 130 34 107 24 143 34 176 50 50 25 77 24 83 -2
l6 -23 42 30 c24 17 48 31 55 31 7 1 45 12 83 26 39 13 94 31 123 39 30 9 75
24 100 34 26 11 76 28 111 39 68 20 86 36 51 45 -13 3 -20 13 -20 29 0 19 9
27 52 43 48 18 229 143 271 186 10 11 27 19 38 19 24 0 64 24 100 59 14 14
128 125 253 246 164 158 253 253 317 337 49 65 89 120 89 124 0 3 12 23 28 43
15 20 36 52 46 71 11 19 25 40 32 45 7 6 21 26 31 45 10 19 27 49 39 65 21 32
144 279 144 292 0 5 20 47 44 95 25 48 48 102 52 120 3 18 17 56 30 83 47 102
113 336 168 600 41 199 61 696 36 920 -6 50 -15 133 -20 185 -10 108 -34 245
-49 281 -6 13 -19 58 -30 99 -19 78 -70 228 -97 290 -8 19 -19 44 -23 55 -4
11 -21 49 -38 85 -17 36 -51 108 -76 160 -98 207 -120 249 -190 357 -143 222
-160 243 -201 243 -22 0 -6 -40 38 -93 45 -57 148 -230 185 -314 17 -37 36
-75 41 -83 23 -34 50 -99 70 -165 18 -62 68 -185 120 -300 11 -22 24 -60 29
-85 6 -25 22 -72 36 -105 13 -33 25 -70 25 -83 0 -42 24 -101 43 -106 17 -4
19 -12 13 -93 -8 -129 -21 -247 -28 -259 -4 -5 -12 -50 -18 -100 -6 -49 -22
-120 -35 -159 -13 -38 -21 -81 -18 -95 3 -17 -3 -34 -17 -50 -20 -23 -20 -25
-4 -29 10 -2 20 1 22 7 2 6 16 30 32 54 17 24 30 55 30 71 0 28 13 36 27 15 4
-7 13 -49 19 -93 23 -167 -20 -601 -81 -813 -9 -29 -27 -94 -40 -145 -13 -50
-38 -130 -55 -177 -17 -47 -39 -113 -49 -147 -10 -34 -25 -73 -33 -85 -8 -13
-23 -45 -33 -73 -28 -73 -94 -192 -187 -333 -26 -41 -48 -80 -48 -87 0 -7 -3
-15 -7 -17 -5 -2 -42 -55 -85 -118 -42 -63 -99 -141 -127 -173 -28 -32 -51
-62 -51 -66 0 -5 -31 -35 -70 -67 -38 -32 -72 -69 -76 -81 -8 -29 -22 -39 -65
-47 -36 -6 -38 -5 -76 51 -21 32 -51 75 -67 96 -18 24 -30 54 -34 85 -3 26
-12 58 -21 71 -10 16 -15 46 -15 92 l1 68 -43 -36 c-24 -19 -44 -43 -44 -53 0
-9 14 -34 30 -55 24 -30 30 -47 30 -86 0 -63 13 -90 82 -172 32 -37 58 -75 58
-85 1 -9 9 -35 20 -57 28 -59 25 -68 -30 -93 -28 -13 -65 -38 -83 -55 -31 -31
-175 -130 -227 -157 -14 -7 -36 -23 -50 -35 -14 -13 -43 -36 -66 -51 -109 -78
-136 -101 -170 -151 -20 -30 -50 -61 -66 -69 -27 -14 -33 -14 -66 4 -29 15
-38 26 -40 50 -2 18 1 32 7 32 17 0 38 51 47 115 11 76 7 112 -15 150 -10 17
-24 49 -31 72 -12 38 -72 113 -90 113 -4 0 -24 14 -45 30 -43 34 -78 38 -129
14 -26 -13 -41 -14 -63 -6 -17 5 -41 8 -55 5 -29 -6 -51 17 -46 49 2 19 11 24
50 30 57 8 130 34 178 63 19 12 46 26 60 30 22 7 46 22 130 83 62 45 119 82
128 82 21 0 190 163 219 211 9 15 42 46 74 70 32 24 62 53 65 64 19 59 58 47
126 -40 23 -30 46 -55 50 -55 13 0 9 34 -10 91 -23 70 -15 104 45 186 49 66
71 82 85 61 6 -10 17 -3 44 24 19 21 41 38 48 38 25 0 170 180 188 232 6 18
15 38 19 44 5 6 0 17 -11 27 -11 9 -20 26 -20 37 0 11 -8 39 -19 62 -61 140
-75 232 -41 263 29 26 51 73 61 128 6 34 19 60 48 94 42 47 61 94 61 151 0 38
38 118 70 147 36 32 51 84 57 193 8 133 19 150 86 134 76 -20 79 -18 54 29
-28 52 -50 64 -87 49 -22 -9 -37 -9 -66 0 -29 10 -44 10 -74 0 -35 -12 -37
-14 -30 -41 5 -15 9 -63 10 -106 1 -43 2 -94 2 -113 1 -19 -3 -62 -8 -95 -8
-52 -12 -60 -29 -57 -11 2 -29 15 -40 30 -36 49 -136 142 -153 142 -9 0 -27
-16 -40 -35 -12 -19 -29 -35 -37 -35 -8 0 -43 28 -78 63 -48 48 -75 67 -119
81 -52 17 -62 18 -100 5 -54 -17 -97 -57 -77 -70 8 -5 26 -6 41 -3 48 10 101
-13 156 -67 77 -76 70 -115 -32 -164 -32 -16 -47 -32 -68 -74 -14 -30 -32 -58
-40 -62 -25 -16 -58 -9 -92 22 -20 17 -40 28 -46 24 -33 -20 19 -115 81 -149
l35 -18 53 26 c41 21 51 31 46 44 -18 43 -18 52 4 52 22 0 61 -51 61 -82 0
-24 -58 -86 -108 -115 -24 -14 -41 -30 -39 -37 2 -6 24 -11 51 -10 38 0 52 6
79 32 53 52 84 37 71 -34 -8 -42 7 -44 35 -5 28 39 28 108 0 161 -32 61 -22
79 67 120 69 31 79 40 106 87 17 29 36 53 44 53 38 0 74 -115 55 -173 -10 -30
-76 -87 -101 -87 -10 0 -90 -87 -90 -99 0 -5 -3 -16 -6 -25 -8 -21 24 -21 50
-1 24 18 62 20 72 3 11 -18 -59 -75 -108 -88 -59 -16 -98 -38 -98 -54 0 -7 -7
-19 -15 -26 -34 -28 -4 -139 47 -172 13 -9 39 -19 58 -23 24 -5 53 -25 93 -66
47 -49 57 -65 57 -94 0 -36 -20 -55 -58 -55 -25 0 -40 -18 -61 -76 -13 -39
-25 -52 -60 -71 -76 -40 -84 -2 -16 67 l45 46 -24 23 -24 22 -21 -27 c-11 -15
-21 -32 -21 -39 0 -7 -17 -30 -37 -51 -33 -35 -125 -153 -163 -208 -8 -12 -27
-35 -42 -51 -15 -16 -30 -42 -34 -58 -6 -27 -9 -29 -41 -24 -33 6 -41 1 -107
-57 -39 -35 -90 -91 -114 -123 -46 -63 -110 -117 -212 -178 -36 -21 -85 -55
-110 -75 -54 -44 -159 -106 -292 -171 -31 -15 -59 -33 -63 -38 -3 -6 -20 -11
-36 -11 -41 0 -63 -14 -89 -55 -23 -38 -56 -46 -102 -24 -25 11 -56 0 -131
-45 -32 -19 -54 -24 -122 -25 -46 0 -103 -7 -127 -15 -62 -21 -254 -46 -356
-46 -48 0 -130 6 -182 14 -52 8 -135 20 -185 27 -49 6 -119 15 -155 20 -94 14
-93 13 -122 6 -22 -6 -35 1 -79 38 -29 25 -62 45 -74 45 -12 0 -25 4 -30 9 -6
4 -35 16 -65 25 -30 10 -80 33 -111 52 -31 19 -62 34 -68 34 -6 0 -20 5 -31
12 -15 10 -24 9 -44 -2 -23 -12 -30 -11 -60 5 -36 20 -59 55 -50 79 8 20 -11
28 -68 28 -46 -1 -56 3 -102 44 -28 24 -55 44 -59 44 -5 0 -26 14 -47 30 -21
17 -41 30 -45 30 -7 0 -49 33 -159 125 -69 58 -112 101 -194 194 -24 27 -44
41 -51 36 -9 -5 -9 -11 2 -23 24 -27 30 -59 13 -65 -14 -6 -39 19 -106 107 -8
11 -48 57 -88 102 -72 83 -85 110 -57 120 8 4 15 13 15 21 0 27 -88 158 -147
221 -7 7 -13 17 -13 22 0 15 31 40 48 40 10 0 33 11 52 24 31 20 50 24 175 29
137 6 230 25 285 59 22 14 22 28 -1 85 -19 46 7 73 71 73 109 0 214 61 266
155 16 29 27 100 19 125 -6 19 -35 29 -35 11 0 -21 -73 -101 -112 -121 -34
-18 -60 -22 -119 -23 -42 0 -82 3 -88 7 -19 12 -32 81 -21 111 5 14 10 48 10
75 0 40 -5 55 -30 83 -57 65 -31 137 55 155 29 6 41 13 43 29 4 24 -28 33
-115 33 -49 0 -58 -4 -93 -38 -32 -30 -40 -45 -44 -84 -2 -26 -7 -52 -11 -58
-10 -17 -41 -11 -61 11 -16 17 -19 37 -19 108 0 86 -1 88 -35 83 -5 -1 -20
-22 -31 -47 -19 -40 -21 -56 -15 -120 7 -73 6 -75 -16 -75 -25 0 -78 46 -78
68 0 28 -25 5 -28 -26 -6 -61 106 -152 187 -152 60 0 76 -35 55 -117 -22 -84
-15 -162 19 -203 53 -62 25 -87 -74 -64 -66 15 -92 31 -121 73 -14 20 -16 40
-11 118 6 99 -4 140 -51 206 -32 45 -50 36 -42 -22 7 -57 -17 -100 -49 -87
-16 6 -17 16 -12 99 3 50 12 107 19 124 10 26 10 42 0 79 -15 56 -39 77 -113
99 -53 16 -59 16 -89 1 -44 -22 -59 -20 -65 7 -3 12 -9 101 -15 197 -10 198
-5 218 43 180 15 -12 27 -28 27 -35 0 -15 30 -73 61 -117 11 -14 19 -30 19
-36 0 -5 7 -15 16 -23 8 -7 30 -35 49 -64 43 -64 81 -100 90 -85 3 6 -4 43
-16 83 -30 95 -33 321 -5 407 76 238 226 445 429 593 32 23 78 57 102 75 24
17 47 32 51 32 4 0 21 11 38 24 17 13 55 34 84 46 28 12 52 28 52 34 0 7 -21
32 -46 56 -33 32 -48 41 -52 31 -4 -12 -52 -69 -92 -111 -65 -66 -181 -134
-274 -160 -64 -18 -90 -20 -163 -14 -49 4 -96 11 -105 16 -34 17 -20 45 40 82
81 50 146 149 154 233 4 54 -12 48 -65 -23 -25 -34 -59 -71 -76 -84 -18 -12
-43 -39 -57 -59 -13 -20 -36 -51 -49 -70 -31 -43 -31 -56 0 -87 14 -14 25 -29
25 -34 0 -12 82 -50 108 -50 19 0 22 -6 22 -39 0 -24 -7 -46 -17 -56 -37 -37
-153 -222 -153 -243 0 -6 -11 -35 -24 -64 -13 -29 -32 -82 -41 -118 -27 -104
-22 -101 -131 -84 -39 5 -43 4 -77 -37 -21 -23 -37 -49 -37 -56 0 -8 -7 -27
-15 -44 -15 -27 -16 -48 -14 -222 1 -65 81 -150 174 -185 48 -18 64 -30 82
-60 22 -40 32 -99 19 -120 -4 -6 0 -22 8 -34 9 -12 16 -31 16 -40 0 -10 17
-37 38 -61 41 -44 72 -111 72 -152 0 -13 16 -54 36 -91 35 -65 38 -94 10 -94
-20 0 -76 51 -76 70 -1 40 -85 89 -126 73 -18 -7 -18 -23 0 -23 21 0 66 -44
66 -64 0 -9 7 -27 16 -41 8 -13 14 -38 12 -57 -3 -29 -6 -33 -33 -33 -25 0
-32 5 -40 31 -6 17 -15 37 -22 45 -6 8 -15 34 -20 58 -10 52 -29 63 -43 26
-20 -54 23 -155 81 -189 20 -12 32 -32 44 -74 9 -31 34 -95 56 -141 21 -46 39
-96 39 -111 0 -15 9 -39 20 -53 11 -14 20 -29 20 -35 0 -14 94 -153 123 -182
74 -74 165 -140 255 -186 18 -9 40 -26 50 -38 15 -20 66 -63 172 -144 19 -15
44 -36 55 -47 12 -11 46 -35 76 -54 115 -73 230 -141 237 -141 4 0 31 -15 59
-33 28 -18 78 -41 110 -51 32 -11 81 -29 108 -42 28 -12 61 -25 75 -29 14 -4
63 -25 110 -48 47 -22 109 -51 138 -65 44 -21 95 -30 295 -53 133 -16 271 -33
307 -39 71 -12 264 -7 345 10 28 6 77 14 110 19 189 29 258 44 309 66 31 14
75 25 99 25 44 0 70 6 154 38 42 16 60 18 95 10 23 -5 83 -11 133 -13 49 -2
114 -11 142 -20 44 -13 54 -20 58 -43 7 -30 7 -29 50 -93 28 -41 30 -49 28
-128 -2 -46 -8 -89 -13 -97 -6 -7 -17 -34 -23 -60 -10 -38 -21 -55 -55 -81
-29 -22 -55 -33 -76 -33 -17 0 -37 -5 -43 -11 -11 -11 -43 -19 -218 -59 -104
-23 -231 -55 -325 -81 -57 -16 -112 -22 -228 -24 -168 -4 -226 -11 -257 -31
-49 -31 -332 -34 -490 -5 -124 23 -178 31 -300 46 -71 8 -149 22 -173 30 -53
19 -202 60 -307 85 -84 19 -183 56 -250 91 -22 12 -94 49 -160 83 -130 67
-211 113 -235 131 -8 7 -46 29 -85 50 -38 20 -78 46 -88 56 -10 10 -22 19 -28
19 -27 0 -217 152 -329 262 -240 238 -468 491 -511 568 -8 15 -34 59 -56 96
-55 93 -87 149 -119 209 -14 28 -36 64 -48 80 -25 35 -111 208 -121 245 -4 14
-22 60 -41 103 -19 43 -34 84 -34 91 0 7 -8 35 -18 62 -37 98 -61 181 -73 249
-6 39 -20 86 -30 105 -11 20 -19 55 -19 83 0 30 -8 63 -22 90 -20 37 -23 57
-23 162 0 131 -7 151 -64 213 -17 18 -61 47 -98 65 -92 43 -180 45 -233 6 -19
-15 -48 -29 -64 -33 -37 -9 -126 13 -126 31 0 17 76 116 132 170 56 56 223
157 278 168 81 17 113 39 165 108 20 28 32 58 37 96 11 92 26 157 41 188 8 15
18 55 22 88 4 33 13 78 20 100 24 73 36 181 25 230 -11 51 -6 66 36 112 80 87
77 171 -11 251 -48 44 -104 80 -181 116 -35 17 -104 89 -104 110 0 9 16 17 43
21 23 3 58 12 77 19 19 7 53 19 75 26 22 7 51 21 65 30 54 36 107 69 140 87
38 20 90 68 90 83 0 5 6 13 14 17 42 24 126 180 126 235 0 27 6 40 19 48 39
20 61 10 131 -57 38 -38 73 -72 79 -78 6 -5 32 -38 57 -72 35 -48 54 -65 82
-73 20 -5 40 -10 44 -10 16 0 81 66 115 117 39 60 40 60 123 18 53 -27 80 -37
178 -65 63 -18 72 -24 72 -44 0 -17 -16 -37 -49 -65 -59 -49 -79 -96 -73 -168
4 -54 24 -73 35 -33 3 11 19 28 36 37 36 21 40 47 11 63 -30 16 -18 26 68 55
73 25 92 33 173 79 102 57 162 132 178 220 12 64 22 77 52 69 30 -8 40 -35 27
-79 -36 -131 -135 -236 -278 -295 -88 -37 -89 -37 -70 -49 47 -30 330 13 381
56 8 8 28 14 42 14 41 0 38 -50 -5 -95 -35 -35 -76 -144 -64 -164 5 -7 35 16
81 64 41 41 80 75 88 75 8 0 20 6 26 14 7 8 24 17 38 21 21 5 31 1 45 -17 10
-13 18 -32 18 -44 0 -33 60 -145 104 -196 70 -80 147 -132 227 -153 55 -15 81
-6 61 22 -88 125 -72 288 53 535 82 161 181 288 281 360 18 13 47 35 65 50 39
30 172 99 239 123 126 46 224 44 275 -5 59 -58 67 -42 73 151 4 146 4 147 -23
194 -25 41 -56 65 -86 65 -16 0 -10 -33 13 -77 17 -32 20 -45 11 -54 -8 -8
-17 -7 -34 5 -28 19 -124 22 -135 4 -5 -7 -9 -32 -9 -55 -1 -23 -8 -49 -15
-57 -20 -25 -142 -102 -195 -124 -328 -134 -498 -160 -651 -99 -58 22 -164
115 -164 141 0 8 -7 19 -16 26 -24 21 -13 63 21 80 136 68 339 251 388 348 29
58 34 94 23 157 l-8 41 48 23 c30 15 72 26 116 29 46 3 71 9 75 18 8 21 -22
61 -67 89 -56 35 -51 51 21 71 58 16 60 18 54 43 -15 61 -13 66 28 65 24 -1
46 -9 61 -23 24 -22 51 -27 61 -11 3 5 -10 26 -29 46 -20 21 -36 41 -36 45 0
15 38 29 79 29 55 0 69 -16 134 -152 62 -126 115 -198 252 -339 51 -52 100
-111 109 -130 9 -19 24 -47 33 -64 47 -80 83 -238 83 -365 0 -106 -10 -171
-41 -264 -45 -133 -60 -151 -323 -397 -146 -136 -196 -193 -181 -207 9 -9 58
23 113 75 27 27 87 80 132 118 220 187 280 261 341 420 33 87 34 94 34 235 0
139 -2 149 -35 245 -38 113 -95 228 -142 289 -18 22 -68 79 -111 126 -111 119
-177 211 -228 313 -45 94 -97 150 -147 160 -59 12 -146 -19 -191 -67 -33 -35
-46 -33 -76 14 -28 44 -55 65 -98 76 -33 8 -33 10 7 119 30 80 32 122 11 183
-23 67 -41 87 -102 118 -85 42 -159 44 -240 4z m326 -512 c22 -21 45 -55 52
-75 11 -33 10 -38 -11 -55 -12 -10 -35 -18 -52 -18 -21 0 -42 -12 -76 -44 -46
-43 -46 -44 -34 -82 11 -38 6 -119 -8 -139 -4 -5 -10 -29 -14 -51 -3 -23 -13
-54 -21 -70 -8 -16 -15 -34 -15 -41 0 -14 -31 -33 -54 -33 -21 0 -21 53 -1 70
8 7 15 23 15 37 0 13 7 40 15 60 20 47 19 141 -1 182 -16 31 -15 32 22 74 39
43 102 89 142 101 12 4 22 11 22 15 0 16 -41 60 -60 66 -22 7 -27 41 -7 48 23
7 47 -5 86 -45z m-289 -447 c5 -11 10 -46 10 -78 0 -37 6 -67 16 -81 21 -31
12 -52 -50 -110 -65 -62 -93 -71 -147 -47 -32 15 -55 17 -130 12 -67 -4 -104
-2 -142 10 -29 8 -58 17 -65 19 -46 13 34 75 120 94 82 17 281 128 315 174 22
30 58 33 73 7z m-697 -278 c13 -8 -12 -30 -41 -36 -74 -14 -122 -33 -177 -70
-73 -49 -186 -147 -181 -156 3 -4 41 -2 86 3 71 9 83 8 98 -8 16 -16 16 -18
-5 -35 -15 -13 -47 -20 -112 -24 -100 -7 -115 -14 -190 -84 -45 -42 -74 -53
-86 -33 -12 20 122 210 191 270 112 98 221 163 304 181 33 7 96 3 113 -8z
m521 -82 c31 -49 -195 -241 -283 -241 -13 0 -26 -10 -33 -25 -7 -17 -24 -29
-50 -35 -21 -6 -38 -14 -38 -19 0 -4 -11 -13 -24 -19 -19 -9 -27 -8 -37 4 -7
8 -18 13 -26 10 -27 -11 -63 16 -63 45 0 18 -7 32 -19 39 -41 21 -51 39 -39
65 6 14 15 25 20 25 22 0 4 19 -24 25 -53 12 -90 34 -86 53 3 14 17 17 94 17
52 0 97 5 105 11 8 6 38 19 68 29 52 17 57 17 105 0 28 -10 55 -22 61 -26 28
-27 198 5 219 40 9 13 43 14 50 2z m-676 -288 c6 -15 12 -40 12 -55 0 -24 -4
-28 -27 -28 -14 0 -50 -13 -80 -30 -34 -20 -67 -30 -93 -30 -45 0 -91 25 -84
44 6 16 48 36 74 36 11 0 20 7 20 15 0 9 9 15 23 15 12 0 31 7 41 15 11 8 27
15 37 15 9 0 19 7 23 15 9 24 40 17 54 -12z m430 -85 c3 -17 -19 -44 -53 -64
-32 -18 -7 -34 54 -34 69 0 124 20 167 62 19 17 40 28 50 26 17 -3 19 -12 16
-68 -2 -35 -7 -69 -11 -75 -5 -5 -11 -22 -14 -36 -7 -27 -72 -99 -122 -135
-42 -31 -24 -47 46 -41 81 7 191 26 214 36 43 21 114 51 119 51 3 0 61 34 129
75 124 75 157 87 157 61 0 -15 -66 -77 -131 -121 -58 -40 -229 -125 -251 -125
-9 0 -19 -4 -22 -8 -3 -5 -35 -17 -71 -27 -88 -24 -222 -17 -325 17 -40 14
-76 30 -78 37 -6 18 16 39 51 47 53 11 146 65 182 106 52 57 46 87 -12 63 -59
-25 -144 -19 -217 14 -35 16 -67 34 -71 41 -10 16 28 50 55 50 9 0 37 16 61
35 47 36 72 41 77 13z m-300 -24 c2 -13 -14 -37 -50 -72 -80 -79 -203 -132
-308 -132 -71 0 -96 -14 -55 -31 52 -21 157 -40 252 -47 50 -4 95 -10 98 -14
4 -4 5 -18 1 -32 -5 -20 -14 -26 -49 -31 -67 -10 -281 38 -367 82 -14 7 -31
13 -38 13 -7 0 -30 11 -51 25 -22 13 -50 27 -63 30 -13 4 -37 16 -52 29 -27
21 -27 23 -12 39 14 13 26 15 59 10 23 -5 101 -8 172 -7 182 0 267 27 375 120
55 47 83 53 88 18z m48 -128 c10 -25 -43 -103 -74 -109 -44 -8 -53 9 -23 44
71 83 86 94 97 65z m654 -31 c0 -8 -7 -15 -15 -15 -16 0 -20 12 -8 23 11 12
23 8 23 -8z m160 -188 c0 -14 -23 -46 -65 -87 -76 -76 -135 -181 -135 -238 0
-21 -6 -46 -13 -56 -12 -16 -16 -17 -36 -5 -41 26 -40 70 6 169 25 53 85 137
109 152 6 4 33 25 60 48 55 45 74 50 74 17z m-477 -166 c5 -20 -10 -31 -43
-31 -25 0 -35 17 -20 35 18 22 57 19 63 -4z m137 -8 c45 -58 7 -103 -59 -68
-27 13 -30 19 -24 48 10 54 48 64 83 20z m-2508 -2034 c29 -11 60 -26 68 -34
8 -7 32 -19 54 -26 44 -16 62 -49 45 -80 -6 -13 -7 -25 -1 -32 15 -19 23 -80
13 -96 -8 -12 -16 -13 -49 -3 -22 7 -53 12 -71 12 -43 0 -41 30 4 73 19 18 32
36 28 40 -14 15 -72 6 -98 -15 -40 -31 -85 -97 -85 -124 0 -25 -26 -44 -58
-44 -10 0 -49 16 -85 35 -74 39 -156 48 -193 20 -27 -20 -52 -18 -59 5 -8 27
35 118 76 157 44 44 85 50 144 24 84 -37 215 -40 250 -5 24 24 18 32 -27 39
-49 8 -78 29 -78 57 0 25 54 24 122 -3z m-349 -384 c25 -5 28 -10 25 -37 -2
-24 -9 -34 -31 -41 -24 -8 -33 -5 -53 14 -26 24 -32 65 -11 72 12 4 19 3 70
-8z m2065 -63 c6 -18 -15 -14 -22 4 -4 10 -1 14 6 12 6 -2 14 -10 16 -16z m75
-231 c36 -30 38 -47 14 -85 -24 -39 -42 -45 -55 -18 -13 23 -25 110 -17 122 7
11 33 3 58 -19z m4176 -147 c26 -21 31 -33 31 -67 0 -85 -34 -88 -75 -8 -34
68 -32 96 7 100 3 1 20 -11 37 -25z"/>
<path d="M3200 7016 c-91 -20 -58 -66 46 -66 53 0 184 35 184 49 0 9 -116 32
-151 30 -13 -1 -49 -7 -79 -13z"/>
<path d="M3070 6941 c0 -12 58 -41 82 -41 16 0 15 4 -10 25 -29 25 -72 34 -72
16z"/>
<path d="M3185 6890 c-3 -6 1 -13 10 -16 19 -8 30 0 20 15 -8 14 -22 14 -30 1z"/>
<path d="M3806 8343 c-52 -28 -112 -104 -99 -125 9 -16 29 -7 48 22 11 16 42
41 69 55 43 23 53 24 78 14 40 -16 48 -2 15 27 -32 28 -69 30 -111 7z"/>
<path d="M4477 8060 c3 -12 16 -25 28 -30 26 -10 105 -99 106 -120 0 -8 18
-42 40 -75 21 -33 43 -70 49 -82 5 -13 14 -23 19 -23 20 0 21 20 1 57 -11 21
-20 45 -21 53 0 8 -8 27 -17 41 -9 15 -31 51 -49 80 -37 62 -85 103 -130 113
-29 7 -31 5 -26 -14z"/>
<path d="M4335 7740 c-10 -15 3 -44 29 -69 27 -26 46 -21 46 12 0 28 -9 41
-37 56 -27 14 -30 14 -38 1z"/>
<path d="M3090 7710 c-14 -11 -50 -31 -80 -45 -30 -14 -64 -31 -75 -37 -11 -7
-35 -14 -54 -17 -58 -10 -50 -31 11 -31 39 0 69 8 111 30 71 36 137 87 137
106 0 20 -20 17 -50 -6z"/>
<path d="M3590 7716 c0 -8 5 -18 10 -21 6 -3 10 3 10 14 0 12 -4 21 -10 21 -5
0 -10 -6 -10 -14z"/>
<path d="M5043 7522 c-13 -2 -23 -9 -23 -17 0 -16 59 -31 190 -50 147 -21 222
-34 260 -45 19 -5 64 -16 100 -25 61 -14 102 -28 175 -60 86 -37 253 -104 272
-110 12 -3 36 -20 54 -36 29 -27 31 -32 17 -45 -13 -13 -25 -11 -102 20 -54
22 -94 33 -102 28 -26 -15 43 -55 174 -102 72 -26 152 -76 152 -95 0 -7 27
-35 60 -62 34 -26 78 -63 98 -80 20 -18 40 -33 43 -33 3 0 15 -8 27 -17 221
-185 237 -202 213 -226 -12 -12 -40 6 -152 98 -129 105 -179 131 -186 95 -2
-14 75 -80 94 -80 4 0 26 -17 48 -37 22 -19 56 -46 75 -58 19 -12 41 -30 49
-39 7 -9 19 -16 25 -16 6 0 28 -14 48 -30 20 -17 50 -36 66 -43 58 -24 289
-244 377 -357 43 -56 50 -68 117 -188 67 -122 218 -435 218 -454 0 -18 -36
-39 -55 -32 -16 6 -45 54 -45 73 0 9 -78 183 -99 221 -4 8 -24 45 -44 82 -105
195 -190 310 -337 459 -96 96 -227 199 -255 199 -16 0 -14 -5 12 -32 16 -18
33 -41 36 -50 3 -10 21 -24 39 -32 47 -21 69 -41 63 -57 -4 -14 14 -42 96
-146 105 -133 141 -192 134 -223 -7 -34 11 -74 59 -128 51 -58 98 -141 91
-162 -3 -10 2 -36 11 -57 9 -21 16 -53 15 -70 -1 -18 6 -47 16 -65 9 -18 27
-61 39 -96 12 -35 30 -74 38 -87 32 -49 -17 -76 -64 -35 -26 23 -68 20 -129
-7 -38 -17 -55 -15 -221 27 -64 16 -106 21 -167 18 -100 -5 -116 -16 -108 -72
4 -28 2 -47 -8 -60 -13 -17 -19 -18 -81 -7 -38 7 -89 9 -114 5 -68 -10 -148
-51 -181 -93 -30 -39 -69 -136 -58 -147 4 -4 33 13 64 38 32 25 80 53 106 63
42 16 55 16 102 6 29 -7 69 -22 87 -35 29 -20 33 -27 31 -63 -1 -24 -12 -58
-27 -82 -31 -48 -33 -93 -7 -144 23 -46 18 -69 -22 -103 -26 -22 -38 -25 -74
-21 -48 5 -59 -3 -42 -31 19 -31 80 -52 147 -52 57 0 62 2 85 33 13 17 31 49
41 70 18 39 26 43 57 27 15 -9 19 -21 19 -63 -1 -29 -7 -63 -15 -77 -18 -31
-19 -80 -2 -80 38 1 99 98 105 168 4 42 8 52 23 52 19 0 41 -19 66 -56 20 -31
33 -22 33 24 0 53 -37 102 -101 134 -30 15 -62 30 -73 33 -28 8 -16 95 21 143
36 48 45 139 17 190 -17 32 -17 35 -1 47 15 10 26 10 63 -1 110 -33 164 -128
119 -213 -24 -48 -31 -186 -11 -234 20 -50 39 -43 48 16 8 60 13 67 49 67 36
0 38 -24 9 -89 -11 -24 -20 -49 -20 -56 0 -7 -13 -39 -30 -70 -41 -78 -39
-105 12 -161 46 -50 93 -74 143 -74 33 0 155 56 155 71 0 10 -35 19 -70 18
-14 0 -53 2 -86 6 -52 6 -64 11 -73 32 -25 55 -6 151 46 235 13 21 23 41 23
44 0 4 12 26 28 50 28 45 48 55 58 29 8 -20 50 -19 58 0 3 8 17 20 30 25 26
10 39 41 52 130 4 28 15 53 29 65 13 11 27 38 33 60 6 22 20 65 32 95 12 30
34 96 49 145 15 50 33 100 39 112 7 12 15 50 19 85 4 43 13 71 27 89 12 14 30
54 41 90 10 35 27 75 37 88 24 31 23 44 -5 78 -13 15 -36 55 -51 88 -16 33
-38 80 -49 105 -22 47 -74 125 -162 245 -28 39 -67 96 -86 127 -19 31 -54 82
-79 113 -53 66 -257 273 -326 330 -61 51 -214 165 -221 165 -3 0 -19 12 -37
26 -63 52 -189 130 -291 181 -27 14 -73 41 -102 59 -28 19 -55 34 -60 34 -5 0
-22 13 -37 29 -15 15 -52 41 -82 56 -30 15 -57 32 -60 36 -3 5 -18 9 -34 9
-16 0 -32 5 -35 10 -7 12 -45 13 -45 2 0 -18 47 -51 100 -72 30 -12 69 -32 87
-46 17 -13 36 -24 42 -24 9 0 31 -31 31 -44 0 -3 -12 -12 -27 -20 -25 -13 -33
-11 -108 25 -44 22 -93 47 -110 56 -202 108 -267 131 -386 142 -90 9 -188 21
-329 41 -96 14 -132 17 -157 12z m1358 -472 c64 -63 80 -73 72 -40 -8 31 18
25 63 -15 21 -20 63 -52 92 -71 28 -19 52 -39 52 -45 0 -5 8 -13 18 -16 16 -7
63 -43 200 -156 92 -75 289 -294 344 -382 18 -27 48 -69 67 -92 20 -23 50 -60
66 -83 17 -22 40 -53 52 -69 12 -15 52 -86 88 -157 70 -137 72 -144 48 -244
-8 -34 -72 -140 -84 -140 -4 0 -13 10 -21 23 -16 24 -78 177 -78 190 0 22
-154 314 -192 363 -24 31 -53 71 -64 88 -12 17 -72 78 -134 136 -237 222 -260
244 -260 253 0 22 -74 118 -149 194 -46 47 -81 90 -81 102 0 36 -11 51 -34 45
-13 -3 -32 4 -51 18 -44 33 -111 109 -119 136 -6 19 -4 22 18 22 19 0 44 -18
87 -60z m1059 -1650 c0 -16 -9 -52 -20 -80 -11 -28 -20 -59 -20 -70 0 -14 -46
-50 -65 -50 -1 0 -8 19 -15 43 -7 23 -16 53 -20 67 -5 14 -11 42 -15 63 -5 32
-3 37 14 37 11 0 23 -4 26 -10 11 -17 61 -11 80 10 25 28 35 25 35 -10z m-196
-249 c19 -7 56 -110 56 -157 0 -25 -25 -49 -61 -57 -29 -7 -49 10 -87 74 -53
88 4 175 92 140z m-610 -60 c26 -29 12 -110 -31 -170 -6 -8 -34 24 -50 56 -15
33 -15 37 2 66 21 38 45 67 55 67 4 0 15 -9 24 -19z m484 -181 c28 -27 52 -55
52 -61 0 -23 -22 -49 -41 -49 -11 0 -29 -4 -39 -10 -29 -16 -70 23 -70 66 0
37 24 104 37 104 4 0 32 -23 61 -50z"/>
<path d="M4153 7473 c-32 -16 -62 -58 -49 -70 4 -4 15 -2 24 4 10 6 32 14 50
18 49 10 69 66 24 64 -9 0 -31 -7 -49 -16z"/>
<path d="M5185 7306 c-19 -14 -19 -15 8 -25 16 -6 34 -11 41 -11 6 0 16 -4 22
-9 5 -5 38 -14 74 -20 58 -10 139 -27 223 -47 20 -5 27 -3 27 9 0 20 -39 44
-85 53 -21 4 -50 13 -64 20 -14 8 -38 14 -53 14 -15 0 -37 4 -50 9 -49 18
-123 22 -143 7z"/>
<path d="M4735 7260 c-26 -29 -8 -42 50 -38 58 4 66 17 24 41 -39 22 -52 22
-74 -3z"/>
<path d="M2607 7230 c-21 -4 -48 -12 -60 -19 -12 -6 -53 -22 -92 -35 -81 -27
-96 -53 -27 -48 23 2 55 10 70 18 15 7 32 14 38 14 24 0 102 41 108 56 8 21 8
22 -37 14z"/>
<path d="M5825 6970 c-9 -14 20 -47 49 -56 33 -9 128 -55 156 -74 115 -80 150
-95 150 -66 0 18 -125 126 -146 126 -8 0 -14 5 -14 10 0 6 -6 10 -12 10 -7 0
-26 7 -43 16 -16 9 -43 20 -60 25 -16 4 -40 11 -51 14 -13 4 -25 2 -29 -5z"/>
<path d="M4190 6873 c-25 -8 -54 -19 -65 -25 -10 -6 -79 -13 -152 -16 -88 -3
-132 -9 -130 -15 7 -21 72 -29 175 -24 113 7 210 34 258 72 l29 24 -35 -1
c-19 0 -55 -7 -80 -15z"/>
<path d="M1785 6730 c-3 -5 3 -10 15 -10 12 0 18 5 15 10 -3 6 -10 10 -15 10
-5 0 -12 -4 -15 -10z"/>
<path d="M4639 6372 c-140 -141 -199 -208 -199 -226 0 -36 272 210 325 294 12
19 30 41 39 49 19 16 21 41 4 41 -7 0 -83 -71 -169 -158z"/>
<path d="M7372 6429 c2 -7 10 -15 17 -17 8 -3 12 1 9 9 -2 7 -10 15 -17 17 -8
3 -12 -1 -9 -9z"/>
<path d="M6500 6315 c0 -8 12 -28 28 -44 70 -75 204 -227 282 -321 74 -88 100
-108 100 -75 0 20 -63 119 -106 168 -19 20 -34 40 -34 45 0 4 -51 60 -114 125
-74 76 -121 117 -135 117 -12 0 -21 -6 -21 -15z"/>
<path d="M4044 6268 c-94 -163 -148 -355 -114 -408 11 -17 14 -9 25 55 4 22
10 45 15 50 4 6 10 30 14 54 4 24 25 82 46 128 22 46 40 90 40 97 0 7 7 21 15
32 18 24 19 44 2 44 -7 0 -26 -24 -43 -52z"/>
<path d="M3134 6060 c-5 -5 -46 -15 -89 -20 -73 -9 -108 -8 -217 5 -32 4 -43
0 -75 -29 -21 -18 -48 -36 -60 -40 -27 -9 -30 -31 -6 -40 22 -9 196 4 208 15
14 14 61 11 75 -6 7 -8 19 -15 26 -15 16 0 54 -57 54 -81 0 -30 42 -114 77
-152 49 -55 64 -103 44 -136 -8 -12 -17 -11 -60 7 -79 33 -116 17 -247 -105
-73 -69 -93 -83 -121 -83 -30 0 -33 3 -33 28 0 16 -6 37 -14 48 -14 18 -15 18
-21 -11 -8 -40 -46 -125 -56 -125 -4 0 -10 -11 -13 -24 -3 -13 -24 -40 -46
-60 -56 -51 -53 -60 21 -52 34 3 67 10 73 15 6 5 27 12 46 16 19 4 53 19 75
33 64 40 195 173 221 225 30 59 54 62 88 10 37 -58 164 -187 226 -228 65 -44
95 -56 115 -49 24 10 18 30 -21 66 -93 86 -138 270 -99 401 36 119 50 153 87
208 55 84 64 105 48 124 -11 13 -17 13 -49 -7 -50 -30 -150 -138 -156 -168
-15 -72 -31 -105 -49 -105 -28 0 -44 56 -45 158 -1 73 3 95 23 137 l24 50 -22
0 c-12 0 -26 -4 -32 -10z"/>
<path d="M3510 5809 c0 -9 11 -26 25 -39 14 -13 25 -29 25 -36 0 -6 11 -19 25
-28 36 -23 34 5 -2 33 -14 12 -37 36 -50 53 -13 19 -23 26 -23 17z"/>
<path d="M7040 5513 c1 -75 60 -213 91 -213 22 0 -33 168 -60 185 -6 3 -11 15
-11 26 0 10 -4 19 -10 19 -5 0 -10 -8 -10 -17z"/>
<path d="M7652 4368 c-7 -7 -12 -24 -12 -38 0 -18 -8 -31 -22 -38 -19 -10 -11
-11 47 -11 39 1 92 -6 120 -14 53 -17 64 -16 46 5 -6 7 -20 25 -32 41 -11 15
-27 27 -34 27 -8 0 -29 9 -47 20 -38 23 -50 24 -66 8z"/>
<path d="M7980 3069 c0 -11 5 -17 10 -14 6 3 10 13 10 21 0 8 -4 14 -10 14 -5
0 -10 -9 -10 -21z"/>
<path d="M7932 2980 c-12 -28 -22 -59 -22 -70 0 -11 -3 -20 -8 -20 -9 0 -82
-158 -82 -180 0 -6 -7 -18 -15 -26 -17 -18 -20 -54 -4 -54 5 0 15 14 20 30 6
17 15 30 20 30 5 0 9 9 9 19 0 11 4 22 9 25 12 8 48 83 57 119 3 15 10 30 15
33 5 3 9 15 9 28 0 12 7 31 15 42 15 20 21 74 7 74 -5 0 -18 -23 -30 -50z"/>
<path d="M1640 2495 c0 -8 4 -15 10 -15 5 0 14 -17 19 -37 17 -62 114 -207
203 -305 48 -52 58 -59 58 -40 0 12 -3 22 -8 22 -4 0 -16 17 -27 38 -10 20
-31 51 -46 67 -15 17 -36 48 -48 69 -11 22 -24 42 -28 45 -4 3 -17 22 -27 41
-27 48 -89 130 -98 130 -4 0 -8 -7 -8 -15z"/>
<path d="M5495 1938 c-64 -21 -241 -62 -360 -82 -44 -8 -98 -19 -120 -25 -22
-6 -72 -11 -110 -11 -83 0 -426 -28 -433 -35 -27 -26 229 -32 442 -10 258 27
523 80 639 129 75 32 25 62 -58 34z"/>
<path d="M7185 1781 c-16 -10 -38 -27 -47 -37 -10 -11 -26 -28 -38 -38 -23
-22 -26 -36 -7 -36 15 0 127 105 127 120 0 13 0 13 -35 -9z"/>
<path d="M5675 930 c3 -5 15 -10 25 -10 10 0 22 5 25 10 4 6 -7 10 -25 10 -18
0 -29 -4 -25 -10z"/>
</g>
</svg>
